<?xml version="1.0" ?><!DOCTYPE svg  PUBLIC '-//W3C//DTD SVG 1.1//EN'  'http://www.w3.org/Graphics/SVG/1.1/DTD/svg11.dtd'><svg enable-background="new 0 0 128 128" version="1.1" viewBox="0 0 128 128" xml:space="preserve" xmlns="http://www.w3.org/2000/svg" xmlns:xlink="http://www.w3.org/1999/xlink"><g id="Layer_1"><rect fill="#F4F5F5" height="1520" opacity="0" width="727.938" x="-59.984" y="-1111"/></g><g id="Layer_2"><g><circle cx="64" cy="64" fill="#735EA5" r="64"/><g><defs><circle cx="64" cy="64" id="SVGID_115_" r="64"/></defs><clipPath id="SVGID_2_"><use overflow="visible" xlink:href="#SVGID_115_"/></clipPath><polygon clip-path="url(#SVGID_2_)" fill="#684E9B" points="20.328,46.444 66.317,92.433 49.958,101.625 53.958,105.667      53.205,106.147 75.058,128 128,128 128,64.156 95.917,32 51.416,35.642 42.053,45.005    "/></g><path d="M91.385,107.6H56.478c-2.437,0-4.412-1.976-4.412-4.412v-7.37c0-2.437,1.976-4.413,4.413-4.413h34.907    c2.437,0,4.413,1.976,4.413,4.413v7.37C95.798,105.625,93.822,107.6,91.385,107.6z" fill="#433644"/><path d="M51.416,61.231l3.813,10.531    c0.976,2.696,3.537,4.492,6.404,4.492h14.236" fill="none" stroke="#F6F7F7" stroke-miterlimit="10" stroke-width="4"/><path d="M64.375,61.062l-2.514,10.015c-0.152,0.629,0.325,1.235,0.972,1.235h6.917L64.375,61.062z" fill="#EF6C88"/><polygon fill="#FFCC04" points="89.068,91.405 74.548,91.405 64.662,63.324 85.852,60.377   "/><g><path d="M58.669,48.339H24.933c-1.725,0-3.38-0.681-4.606-1.895l0,0c-0.8-0.793-0.8-2.086,0-2.879l0,0     c1.226-1.214,2.881-1.895,4.606-1.895h33.736V48.339z" fill="#D3DBE2"/><g><defs><path d="M58.669,48.339H24.933c-1.725,0-3.38-0.681-4.606-1.895l0,0c-0.8-0.793-0.8-2.086,0-2.879l0,0       c1.226-1.214,2.881-1.895,4.606-1.895h33.736V48.339z" id="SVGID_117_"/></defs><clipPath id="SVGID_4_"><use overflow="visible" xlink:href="#SVGID_117_"/></clipPath><g clip-path="url(#SVGID_4_)"><line fill="none" stroke="#FFFFFF" stroke-miterlimit="10" stroke-width="2" x1="28.47" x2="18.928" y1="39.91" y2="49.452"/><line fill="none" stroke="#FFFFFF" stroke-miterlimit="10" stroke-width="2" x1="34.67" x2="25.128" y1="39.91" y2="49.452"/><line fill="none" stroke="#FFFFFF" stroke-miterlimit="10" stroke-width="2" x1="40.869" x2="31.328" y1="39.91" y2="49.452"/><line fill="none" stroke="#FFFFFF" stroke-miterlimit="10" stroke-width="2" x1="47.069" x2="37.527" y1="39.91" y2="49.452"/><line fill="none" stroke="#FFFFFF" stroke-miterlimit="10" stroke-width="2" x1="53.269" x2="43.727" y1="39.91" y2="49.452"/><line fill="none" stroke="#FFFFFF" stroke-miterlimit="10" stroke-width="2" x1="59.468" x2="49.927" y1="39.91" y2="49.452"/></g></g></g><path d="M46.232,57.208h1.639V31.809h-1.639c-3.885,0-7.034,3.149-7.034,7.034v11.331    C39.198,54.059,42.348,57.208,46.232,57.208z" fill="#433644"/><path d="M82.636,63.593H52.412c-2.508,0-4.541-2.033-4.541-4.541V30.957c0-2.508,2.033-4.541,4.541-4.541h30.224    c10.266,0,18.588,8.322,18.588,18.588v0C101.224,55.271,92.902,63.593,82.636,63.593z" fill="#FFCC04"/><g><g><defs><polygon id="SVGID_119_" points="89.068,91.405 74.548,91.405 64.662,63.324 85.852,60.377      "/></defs><clipPath id="SVGID_6_"><use overflow="visible" xlink:href="#SVGID_119_"/></clipPath><g clip-path="url(#SVGID_6_)" opacity="0.6"><path d="M94.453,85.477H81.485c-1.058,0-1.923-0.865-1.923-1.923v0c0-1.058,0.865-1.923,1.923-1.923h12.967       c1.058,0,1.923,0.865,1.923,1.923v0C96.376,84.612,95.51,85.477,94.453,85.477z" fill="#F39C1E"/><path d="M94.453,70.877H76.47c-1.058,0-1.923-0.865-1.923-1.923l0,0c0-1.058,0.865-1.923,1.923-1.923h17.982       c1.058,0,1.923,0.865,1.923,1.923l0,0C96.376,70.012,95.51,70.877,94.453,70.877z" fill="#F39C1E"/><path d="M94.453,78.177H78.788c-1.058,0-1.923-0.865-1.923-1.923l0,0c0-1.058,0.865-1.923,1.923-1.923h15.665       c1.058,0,1.923,0.865,1.923,1.923l0,0C96.376,77.312,95.51,78.177,94.453,78.177z" fill="#F39C1E"/></g></g><path d="M88.055,81.631h-3.347l0.521,3.846h3.225L88.055,81.631z M87.298,74.332H83.75l0.521,3.846h3.426     L87.298,74.332z M86.542,67.031h-3.788l0.559,3.846h3.628L86.542,67.031z" fill="#F39C1E"/></g><line fill="none" stroke="#342934" stroke-linecap="round" stroke-miterlimit="10" stroke-width="6" x1="52.065" x2="96.062" y1="99.503" y2="99.503"/><g><path d="M52.705,59.053V30.957c0-2.508,2.033-4.541,4.541-4.541h-4.833c-2.508,0-4.541,2.033-4.541,4.541v28.095     c0,2.508,2.033,4.541,4.541,4.541h4.833C54.737,63.593,52.705,61.56,52.705,59.053z" fill="#FFDB4B"/><path d="M82.636,26.417h-4.833c10.266,0,18.588,8.322,18.588,18.588s-8.322,18.588-18.588,18.588     h4.833c10.266,0,18.588-8.322,18.588-18.588S92.902,26.417,82.636,26.417z" fill="#F39C1E" opacity="0.34"/></g><g><g><path d="M57.618,32.939c0-0.625,0.506-1.131,1.131-1.131h14.422c0.624,0,1.131,0.506,1.131,1.131      c0,0.625-0.506,1.131-1.131,1.131H58.749C58.125,34.07,57.618,33.564,57.618,32.939z" fill="#FFFFFF"/><path d="M57.618,38.462c0-0.625,0.506-1.131,1.131-1.131h14.422c0.624,0,1.131,0.506,1.131,1.131      s-0.506,1.131-1.131,1.131H58.749C58.125,39.593,57.618,39.087,57.618,38.462z" fill="#FFFFFF"/><path d="M57.618,43.985c0-0.625,0.506-1.131,1.131-1.131h14.422c0.624,0,1.131,0.506,1.131,1.131      s-0.506,1.131-1.131,1.131H58.749C58.125,45.116,57.618,44.61,57.618,43.985z" fill="#FFFFFF"/></g></g></g></g></svg>